<?xml version="1.0" standalone="no"?>
<!DOCTYPE svg PUBLIC "-//W3C//DTD SVG 20010904//EN"
 "http://www.w3.org/TR/2001/REC-SVG-20010904/DTD/svg10.dtd">
<svg version="1.0" xmlns="http://www.w3.org/2000/svg"
 width="848.000000pt" height="848.000000pt" viewBox="0 0 848.000000 848.000000"
 preserveAspectRatio="xMidYMid meet">
<metadata>
Created by potrace 1.14, written by Peter Selinger 2001-2017
</metadata>
<g transform="translate(0.000000,848.000000) scale(0.100000,-0.100000)"
fill="#000000" stroke="none">
<path d="M4009 8436 c-2 -2 -40 -6 -84 -10 -100 -7 -178 -14 -230 -22 -63 -8
-253 -42 -280 -48 -5 -2 -28 -6 -50 -11 -98 -19 -258 -63 -410 -113 -204 -67
-322 -116 -537 -222 -64 -32 -139 -71 -165 -86 -75 -42 -217 -128 -223 -134
-3 -3 -39 -27 -80 -54 -41 -27 -94 -64 -117 -82 -23 -19 -46 -34 -51 -34 -6 0
-12 -3 -14 -7 -1 -5 -38 -37 -82 -72 -328 -265 -629 -594 -842 -921 -27 -41
-51 -77 -54 -80 -3 -3 -11 -15 -18 -27 -6 -13 -18 -33 -25 -45 -6 -13 -15 -25
-18 -28 -6 -6 -68 -118 -126 -230 -73 -140 -216 -481 -228 -543 -2 -9 -7 -22
-10 -27 -3 -5 -8 -18 -10 -27 -2 -10 -20 -72 -39 -138 -20 -66 -37 -132 -40
-145 -2 -14 -5 -25 -6 -25 -1 0 -3 -7 -5 -15 -1 -8 -10 -51 -19 -95 -21 -106
-25 -123 -31 -165 -3 -20 -7 -46 -10 -59 -2 -13 -7 -49 -11 -80 -3 -31 -8 -64
-10 -73 -18 -99 -25 -604 -11 -783 11 -136 19 -208 31 -275 2 -14 10 -59 16
-100 7 -41 14 -84 17 -95 2 -11 11 -50 18 -86 7 -36 19 -86 25 -110 7 -24 14
-51 15 -59 2 -8 13 -44 24 -79 11 -36 18 -68 15 -73 -3 -4 0 -8 5 -8 6 0 11
-11 11 -23 0 -13 3 -26 6 -29 3 -3 22 -55 43 -114 21 -60 44 -122 51 -139 8
-16 14 -32 14 -35 5 -27 147 -320 217 -446 66 -120 226 -366 241 -372 4 -2 8
-8 8 -13 0 -8 134 -186 150 -199 3 -3 24 -27 45 -54 80 -99 246 -271 381 -393
120 -109 146 -130 289 -238 303 -227 641 -414 986 -545 117 -45 311 -109 341
-114 7 -1 19 -5 26 -9 6 -5 12 -6 12 -2 0 3 8 1 18 -4 11 -6 31 -12 46 -15 14
-3 34 -7 44 -10 17 -5 34 -9 117 -26 54 -11 264 -48 295 -52 14 -2 43 -21 65
-43 98 -97 300 -204 420 -221 17 -3 37 -7 45 -10 50 -17 283 -24 391 -12 75 9
101 21 133 59 44 51 32 112 -34 179 -29 29 -28 36 3 37 50 2 141 15 262 38 17
3 43 8 59 10 40 6 199 43 266 63 30 8 61 16 68 18 32 6 224 69 292 96 41 16
80 31 85 32 6 2 24 9 40 16 17 7 36 14 42 16 22 4 73 29 73 35 0 3 6 6 13 6
23 0 374 180 408 209 8 8 19 14 22 14 6 0 216 132 242 152 6 5 60 45 120 91
61 45 125 95 144 112 54 47 77 67 121 105 77 65 270 262 358 364 48 55 90 103
93 106 3 3 32 41 65 85 32 44 61 82 64 85 3 3 28 39 55 80 28 41 53 77 56 80
29 24 249 426 322 590 23 50 108 262 112 280 6 25 22 72 43 128 11 28 19 52
16 52 -2 0 1 11 6 24 12 33 65 238 79 306 21 105 25 124 36 193 23 135 27 164
42 352 10 113 9 543 -1 650 -12 136 -22 226 -30 260 -2 11 -7 43 -10 70 -4 28
-9 57 -11 65 -2 8 -7 29 -10 45 -12 72 -16 91 -20 105 -2 8 -7 29 -9 45 -3 17
-12 52 -20 79 -8 27 -13 53 -10 58 3 4 0 8 -5 8 -6 0 -11 8 -11 17 0 10 -19
76 -42 148 -23 71 -42 132 -43 135 -1 3 -6 16 -12 30 -6 14 -20 52 -32 85 -75
202 -213 474 -355 698 -223 352 -530 703 -824 943 -13 10 -33 27 -45 38 -12
10 -38 30 -57 45 -19 14 -37 28 -40 31 -12 13 -153 112 -235 166 -49 33 -91
62 -93 67 -2 4 -7 7 -12 7 -5 0 -43 21 -86 46 -111 66 -269 146 -411 209 -112
50 -412 162 -457 171 -10 2 -35 9 -55 16 -20 6 -43 13 -51 14 -8 1 -42 10 -75
19 -33 10 -71 19 -85 21 -14 2 -43 8 -65 13 -40 11 -175 35 -250 46 -23 3 -52
8 -65 10 -14 3 -52 7 -85 10 -33 3 -73 7 -90 10 -34 6 -591 16 -596 11z m571
-250 c19 -3 60 -8 90 -10 57 -6 115 -13 159 -21 156 -27 208 -37 281 -55 47
-12 96 -23 110 -26 49 -9 317 -97 415 -136 109 -43 127 -51 228 -97 37 -17 72
-31 77 -31 6 0 10 -3 10 -8 0 -4 24 -18 53 -31 28 -13 96 -50 150 -83 55 -32
103 -58 108 -58 5 0 9 -3 9 -8 0 -4 13 -13 28 -20 16 -6 38 -21 50 -32 12 -11
24 -20 28 -20 13 0 288 -206 340 -255 6 -5 35 -30 64 -55 133 -113 330 -321
478 -506 60 -75 172 -233 172 -243 0 -6 4 -11 9 -11 5 0 13 -9 16 -20 3 -11
12 -26 19 -32 49 -51 250 -437 326 -628 41 -103 128 -355 136 -394 2 -10 11
-44 20 -75 9 -31 18 -67 21 -81 2 -14 9 -45 15 -70 5 -25 12 -57 14 -71 2 -14
8 -37 13 -51 5 -14 8 -28 5 -30 -2 -3 1 -29 6 -59 32 -167 44 -331 44 -599 0
-247 -7 -377 -29 -522 -3 -21 -7 -55 -10 -75 -3 -21 -7 -49 -10 -63 -7 -33
-16 -80 -20 -105 -2 -11 -6 -31 -10 -45 -3 -14 -8 -36 -10 -50 -15 -92 -151
-533 -174 -565 -4 -5 -16 -32 -26 -60 -40 -110 -241 -501 -288 -560 -4 -5 -26
-39 -49 -75 -23 -36 -45 -69 -50 -75 -5 -5 -29 -39 -55 -75 -39 -56 -135 -179
-168 -216 -229 -261 -448 -466 -649 -609 -16 -11 -34 -24 -40 -30 -7 -5 -19
-14 -27 -20 -90 -58 -148 -97 -166 -110 -13 -9 -26 -15 -29 -14 -4 0 -10 -3
-13 -8 -17 -25 -407 -233 -436 -233 -8 0 -15 -4 -15 -10 0 -5 -6 -10 -13 -10
-7 0 -50 -16 -95 -35 -89 -37 -295 -110 -352 -125 -19 -4 -75 -20 -125 -34
-132 -37 -336 -76 -470 -91 -47 -5 -127 -15 -160 -20 -80 -11 -143 -8 -159 8
-9 8 -13 22 -10 30 9 25 47 36 145 42 53 3 109 8 125 11 16 3 43 7 59 9 86 9
224 34 335 60 8 2 38 8 65 15 28 6 81 20 119 31 38 12 76 22 85 25 21 5 162
52 181 61 8 3 17 7 20 8 3 1 18 7 33 13 16 7 31 12 34 12 5 0 51 19 108 45 17
8 53 23 80 35 89 39 259 127 337 177 21 12 42 23 47 23 5 0 11 3 13 8 2 4 28
23 58 42 72 44 271 185 298 210 12 11 24 20 27 20 3 0 13 8 23 17 10 10 39 35
64 56 44 35 79 68 178 162 63 60 208 213 250 264 19 24 43 53 54 65 58 67 199
264 277 388 90 143 227 410 292 568 46 113 142 400 154 460 8 40 11 55 13 55
1 0 4 11 6 25 3 14 9 41 14 60 5 19 12 49 14 65 3 17 8 41 11 55 3 14 8 41 11
60 2 19 7 46 10 60 8 45 18 124 30 255 4 41 7 106 16 330 0 20 -13 281 -17
325 -4 43 -12 121 -19 185 -7 59 -30 186 -46 255 -6 25 -13 59 -15 75 -2 17
-4 30 -5 30 -1 0 -22 75 -54 195 -3 8 -14 44 -26 80 -12 36 -23 72 -25 80 -2
8 -12 36 -24 63 -11 26 -20 48 -20 50 1 4 -14 42 -32 84 -11 23 -19 45 -19 48
0 30 -252 505 -272 513 -4 2 -8 8 -8 14 0 6 -16 33 -35 59 -19 27 -35 51 -35
54 0 4 -115 160 -147 200 -5 6 -26 32 -48 60 -108 135 -258 292 -384 404 -35
31 -73 65 -85 76 -59 55 -248 198 -356 270 -25 17 -47 32 -50 35 -3 3 -16 11
-30 19 -14 8 -52 31 -85 51 -33 20 -94 55 -135 76 -41 21 -78 43 -81 47 -3 5
-8 8 -10 7 -7 -3 -64 23 -81 38 -10 9 -18 12 -18 9 0 -4 -17 2 -37 12 -21 11
-67 31 -103 46 -36 15 -74 31 -85 36 -96 40 -395 136 -485 154 -8 2 -15 4 -15
5 0 1 -11 3 -25 5 -26 3 -59 10 -88 19 -9 3 -33 8 -52 10 -19 3 -44 7 -55 9
-18 4 -92 16 -140 22 -87 13 -159 19 -330 30 -161 11 -492 0 -625 -20 -14 -2
-47 -7 -75 -10 -42 -4 -114 -17 -235 -40 -14 -2 -46 -9 -71 -15 -26 -6 -55
-13 -65 -15 -11 -2 -19 -4 -19 -5 0 -1 -9 -3 -20 -5 -28 -5 -107 -26 -125 -33
-8 -3 -17 -6 -20 -7 -175 -52 -259 -83 -445 -163 -77 -34 -368 -182 -375 -191
-3 -4 -12 -10 -21 -14 -41 -14 -353 -228 -411 -281 -10 -9 -20 -16 -23 -16 -3
0 -13 -8 -23 -17 -10 -10 -40 -36 -66 -58 -59 -48 -212 -192 -271 -255 -120
-126 -149 -159 -183 -202 -20 -27 -40 -48 -44 -48 -4 0 -8 -6 -8 -14 0 -8 -3
-16 -8 -18 -6 -2 -40 -45 -99 -123 -8 -11 -130 -194 -170 -256 -13 -19 -23
-40 -23 -46 0 -6 -4 -13 -8 -15 -13 -5 -104 -177 -165 -308 -62 -136 -69 -152
-71 -164 -2 -6 -8 -22 -14 -36 -23 -51 -61 -157 -72 -200 -7 -25 -17 -51 -22
-57 -6 -7 -8 -13 -4 -13 3 0 1 -11 -4 -25 -15 -40 -69 -247 -74 -285 -2 -19
-7 -42 -10 -50 -3 -8 -7 -31 -10 -51 -3 -20 -7 -42 -10 -50 -7 -19 -17 -94
-30 -214 -4 -33 -9 -73 -11 -90 -4 -25 -18 -419 -16 -450 9 -158 18 -276 27
-337 2 -18 6 -49 8 -68 8 -68 16 -112 50 -285 2 -11 12 -51 21 -90 9 -38 18
-77 20 -85 2 -8 8 -27 14 -42 6 -16 8 -28 5 -28 -2 0 1 -10 8 -22 7 -13 11
-26 10 -30 -1 -4 5 -26 14 -50 9 -24 17 -47 18 -53 2 -5 6 -17 9 -25 3 -8 18
-49 32 -90 47 -129 115 -279 197 -439 44 -85 84 -159 89 -165 5 -6 39 -58 74
-114 36 -57 94 -143 130 -190 35 -48 72 -97 82 -110 9 -13 25 -33 36 -45 10
-12 37 -44 60 -71 115 -135 281 -301 416 -416 29 -25 59 -51 66 -57 8 -7 18
-13 24 -13 6 0 11 -4 11 -8 0 -11 236 -183 338 -247 54 -34 156 -91 252 -143
36 -19 74 -39 85 -45 11 -6 22 -12 25 -12 3 -1 30 -13 60 -27 135 -63 318
-135 375 -148 6 -1 17 -6 26 -11 9 -4 27 -10 40 -13 13 -2 51 -14 84 -25 93
-31 364 -92 465 -106 166 -21 173 -20 228 33 61 59 106 90 184 126 76 35 186
65 257 71 45 3 50 -2 23 -26 -18 -16 -141 -152 -186 -206 -35 -42 -43 -90 -21
-132 9 -18 63 -80 121 -137 57 -57 104 -106 104 -108 0 -3 -13 -1 -29 4 -16 4
-32 6 -34 3 -3 -2 -43 5 -89 18 -137 36 -218 82 -320 182 -64 63 -81 72 -158
81 -53 7 -196 31 -250 42 -14 3 -45 10 -70 15 -25 4 -63 13 -85 19 -22 6 -47
12 -55 14 -112 28 -350 105 -369 120 -8 6 -16 9 -18 8 -5 -5 -165 58 -178 70
-5 4 -17 8 -27 8 -10 0 -18 5 -18 10 0 6 -6 10 -14 10 -21 0 -225 105 -369
190 -33 19 -74 44 -93 55 -18 11 -43 28 -54 37 -11 10 -24 18 -28 18 -4 0 -23
13 -42 30 -19 16 -38 29 -42 30 -4 0 -16 6 -25 14 -10 8 -61 48 -114 89 -132
102 -214 175 -348 308 -142 141 -361 394 -361 417 0 6 -3 12 -7 14 -13 5 -73
86 -73 97 0 5 -3 11 -7 13 -5 2 -29 35 -54 73 -94 143 -150 242 -234 415 -36
74 -70 142 -75 152 -14 26 -110 276 -110 288 0 6 -4 18 -10 28 -5 9 -17 42
-26 72 -30 104 -66 235 -70 260 -3 14 -10 45 -16 70 -6 25 -12 54 -13 65 -2
11 -8 45 -14 75 -23 125 -35 216 -47 360 -15 171 -8 661 11 760 3 16 11 78 20
150 3 25 13 77 21 115 8 39 16 79 18 90 2 11 9 47 16 80 17 73 17 74 20 78 1
1 3 9 5 17 19 92 110 365 168 500 6 14 11 27 12 30 35 112 232 473 363 665
236 346 601 722 907 935 19 14 48 35 63 47 15 13 30 23 34 23 4 0 13 6 20 14
8 7 30 21 48 31 19 9 45 27 58 38 12 11 22 16 22 11 0 -5 4 -4 8 1 18 26 409
235 438 235 8 0 14 5 14 10 0 6 11 10 25 10 14 0 25 4 25 9 0 5 10 11 23 15
13 3 41 13 63 23 21 9 41 17 44 18 3 1 12 4 20 8 42 16 137 49 150 52 8 2 42
13 75 23 62 21 192 57 236 66 13 3 33 7 44 10 87 20 125 28 212 42 54 8 112
17 128 19 17 2 48 7 70 9 22 3 81 8 130 12 50 4 91 8 93 9 6 5 526 -3 562 -9z
m-560 -321 c0 -6 -367 -646 -398 -695 -9 -14 -17 -28 -17 -32 0 -4 -6 -13 -12
-20 -7 -6 -13 -18 -13 -25 0 -7 -4 -13 -10 -13 -5 0 -10 -4 -10 -9 0 -9 -272
-487 -308 -541 -9 -14 -17 -27 -17 -30 0 -3 -17 -33 -38 -66 -20 -34 -37 -66
-37 -72 0 -6 -4 -12 -8 -14 -4 -1 -61 -95 -125 -208 -65 -113 -122 -212 -127
-220 -22 -37 -177 -307 -183 -320 -4 -8 -16 -28 -26 -45 -22 -33 -68 -117 -85
-152 -6 -13 -14 -23 -18 -23 -5 0 -8 -4 -8 -9 0 -4 -45 -86 -100 -180 -55 -95
-100 -176 -100 -181 0 -4 -3 -10 -7 -12 -5 -1 -19 -23 -32 -48 -26 -47 -134
-234 -151 -260 -6 -8 -14 -24 -20 -35 -5 -11 -22 -41 -37 -67 -27 -46 -153
-264 -340 -588 -49 -85 -101 -175 -115 -200 -14 -25 -55 -96 -92 -158 -36 -62
-66 -116 -66 -119 0 -4 -6 -14 -14 -22 -7 -9 -26 -41 -42 -71 -16 -30 -31 -57
-34 -60 -5 -5 -115 -195 -133 -230 -4 -8 -21 -37 -38 -65 -16 -27 -33 -58 -36
-67 -3 -10 -8 -18 -12 -18 -4 0 -13 -16 -21 -35 -8 -19 -17 -35 -22 -35 -4 0
-8 -4 -8 -9 0 -14 -64 -121 -72 -121 -5 0 -8 4 -8 9 0 6 -18 49 -41 98 -95
204 -205 527 -234 688 -3 19 -19 101 -30 155 -3 14 -7 41 -10 60 -3 19 -7 45
-9 57 -3 12 -7 50 -11 85 -3 35 -8 81 -11 103 -4 31 -11 189 -15 330 -3 88 18
353 38 495 17 122 88 446 110 500 3 8 8 23 9 32 6 27 90 258 115 314 12 27 23
54 24 59 4 14 88 189 95 195 3 3 18 32 35 65 54 109 261 426 320 491 5 7 24
29 40 49 17 21 35 43 40 49 6 6 28 31 49 56 187 215 441 440 676 595 58 39
107 72 110 75 5 5 21 15 99 58 25 14 75 41 111 61 36 20 81 43 100 51 19 7 42
19 51 27 8 7 21 13 28 13 6 0 23 7 36 16 14 9 25 13 25 10 0 -4 11 1 25 10 14
9 25 12 25 8 0 -5 4 -4 8 2 15 22 369 140 537 179 57 13 70 16 95 21 14 2 45
9 70 14 41 8 78 15 150 25 14 2 57 7 95 11 39 3 71 7 72 8 7 6 113 6 113 1z
m641 -10 c13 -2 42 -6 64 -9 75 -10 120 -17 145 -22 14 -3 34 -8 45 -10 11 -1
32 -6 48 -9 15 -3 39 -7 55 -10 30 -6 208 -53 232 -61 8 -3 17 -6 20 -6 9 -2
175 -59 195 -67 11 -5 36 -15 55 -22 19 -7 58 -22 85 -34 28 -12 70 -30 95
-40 25 -11 48 -24 52 -30 4 -5 8 -7 8 -4 0 4 46 -18 102 -47 57 -30 106 -54
110 -54 5 0 8 -4 8 -10 0 -5 6 -10 14 -10 8 0 21 -6 28 -13 7 -7 24 -18 38
-25 38 -19 57 -32 159 -102 52 -36 101 -69 110 -75 9 -5 18 -12 21 -15 3 -3
48 -40 100 -82 314 -251 630 -616 821 -948 72 -125 146 -267 146 -280 1 -3 15
-31 32 -62 17 -32 28 -58 25 -58 -4 0 -2 -6 3 -12 26 -33 153 -403 177 -518 3
-14 15 -65 26 -115 24 -109 30 -139 35 -185 2 -19 6 -44 9 -55 2 -11 7 -49 11
-85 3 -36 8 -81 11 -100 2 -19 6 -90 9 -158 3 -68 6 -126 6 -130 1 -4 1 -9 0
-12 -1 -3 -4 -68 -6 -145 -4 -139 -8 -204 -21 -300 -4 -27 -8 -61 -10 -75 -5
-43 -16 -106 -28 -166 -2 -12 -7 -37 -10 -55 -21 -133 -165 -592 -195 -622 -6
-6 -11 -18 -11 -27 0 -9 -11 -39 -25 -66 -14 -27 -25 -52 -25 -56 0 -4 -10
-23 -21 -43 l-22 -36 -54 93 c-30 51 -66 113 -80 138 -25 44 -152 264 -280
483 -35 60 -63 113 -63 118 0 5 -4 9 -10 9 -5 0 -9 3 -8 8 1 4 -5 18 -14 32
-24 38 -101 172 -115 200 -7 14 -17 32 -23 40 -5 8 -24 40 -41 70 -18 30 -40
69 -49 85 -10 17 -41 71 -69 120 -28 50 -55 97 -60 105 -14 22 -232 402 -245
425 -6 11 -13 22 -16 25 -9 9 -51 84 -63 113 -6 15 -15 27 -19 27 -4 0 -8 6
-8 13 0 7 -6 19 -12 26 -7 6 -13 15 -13 19 0 4 -8 18 -17 32 -40 62 -158 272
-158 281 0 5 -4 9 -8 9 -4 0 -15 15 -23 33 -21 43 -53 101 -60 107 -3 3 -20
32 -39 65 -51 92 -56 100 -185 325 -43 74 -85 146 -94 160 -8 14 -16 27 -16
30 0 3 -13 24 -28 47 -15 24 -27 44 -27 47 0 2 -18 34 -41 71 -22 37 -43 74
-47 83 -3 10 -10 22 -15 27 -4 6 -53 89 -108 185 -56 96 -144 249 -196 340
-53 91 -107 185 -121 210 -14 25 -40 68 -58 97 -18 28 -30 54 -27 57 4 3 1 6
-5 6 -7 0 -12 4 -12 9 0 5 -45 87 -101 182 -56 96 -111 192 -124 214 -12 22
-32 56 -43 75 -12 19 -31 53 -43 75 -12 22 -28 48 -37 58 -8 9 -12 17 -8 17 4
0 -5 17 -19 37 -14 21 -25 42 -25 46 0 8 136 3 201 -8z m-541 -1317 l0 -1003
-572 2 c-315 1 -576 2 -580 2 -9 1 51 113 65 122 5 3 9 10 8 15 0 5 10 25 21
44 12 19 33 55 46 80 14 25 33 57 43 72 11 14 19 29 19 33 0 3 15 29 33 58 18
29 38 63 45 77 7 14 23 43 37 65 13 22 27 46 31 54 4 7 52 91 107 185 99 170
109 187 174 301 19 33 44 76 55 95 11 19 32 55 46 80 14 25 57 99 95 165 39
66 75 129 81 140 46 84 240 415 242 415 2 0 4 -451 4 -1002z m290 927 c17 -33
35 -64 40 -70 4 -5 19 -30 32 -55 14 -25 58 -101 98 -170 40 -69 83 -143 96
-165 12 -22 46 -80 75 -130 29 -49 60 -103 69 -120 8 -16 23 -41 31 -55 9 -14
61 -104 117 -200 55 -96 109 -191 121 -210 11 -19 30 -52 41 -72 11 -20 74
-130 141 -245 67 -114 132 -226 144 -248 12 -22 31 -56 43 -75 49 -81 63 -110
50 -110 -24 -1 -1072 -2 -1110 -1 l-38 1 0 1002 c0 565 4 998 9 993 4 -6 23
-37 41 -70z m-1040 -2174 c0 -3 -18 -16 -39 -28 -74 -42 -210 -160 -301 -259
-64 -70 -120 -142 -120 -153 0 -6 -4 -11 -10 -11 -5 0 -10 -7 -10 -15 0 -8 -4
-15 -10 -15 -11 0 -15 472 -4 482 7 8 494 7 494 -1z m2240 -237 c0 -156 -4
-244 -10 -244 -5 0 -10 5 -10 11 0 6 -29 48 -64 93 -88 111 -181 204 -271 271
-22 17 -46 36 -53 42 -7 7 -33 25 -58 39 -24 14 -44 27 -44 28 0 1 115 3 255
3 l255 1 0 -244z m-1490 -1078 c0 -1048 -3 -1315 -12 -1311 -7 2 -38 6 -68 10
-135 14 -322 74 -450 143 -188 102 -374 264 -475 413 -27 41 -53 76 -56 79 -4
3 -29 52 -57 110 -50 106 -87 206 -97 269 -3 19 -7 37 -9 40 -11 19 -20 124
-20 246 0 126 3 164 19 245 3 14 7 36 10 50 30 158 163 419 279 548 21 24 135
135 166 162 112 101 357 228 510 266 61 15 100 23 128 28 19 2 36 6 38 8 2 3
24 5 49 7 l45 2 0 -1315z m345 1303 c33 -6 69 -12 80 -14 11 -1 27 -5 35 -7 8
-3 35 -11 60 -18 25 -7 54 -16 65 -21 11 -4 43 -17 70 -28 75 -29 76 -29 130
-61 28 -16 65 -36 83 -45 17 -10 32 -21 32 -26 0 -5 7 -9 15 -9 8 0 15 -4 15
-9 0 -5 8 -12 18 -15 28 -10 160 -131 225 -207 146 -172 257 -398 293 -594 25
-139 27 -371 4 -473 -7 -30 -13 -61 -15 -70 -2 -9 -4 -17 -5 -17 -1 0 -3 -7
-5 -15 -9 -47 -61 -185 -93 -245 -56 -110 -153 -244 -240 -332 -77 -78 -220
-193 -241 -193 -6 0 -11 -4 -11 -8 0 -14 -200 -109 -290 -138 -116 -37 -113
-36 -130 -39 -8 -1 -31 -6 -50 -10 -65 -13 -140 -22 -145 -17 -3 3 -5 594 -5
1314 l0 1308 23 0 c13 0 50 -5 82 -11z m-1840 -2617 c-6 -6 -1315 -6 -1321 1
-3 3 10 31 30 61 20 31 36 58 36 61 0 2 20 39 45 81 25 41 45 78 45 80 0 3 9
17 19 32 16 23 697 1202 769 1332 14 25 36 62 49 82 12 21 23 42 23 48 0 5 5
10 10 10 6 0 10 4 10 9 0 4 23 48 51 97 62 107 76 131 120 209 18 33 37 62 41
63 4 2 8 7 8 12 0 4 15 34 33 65 l32 56 3 -1147 c1 -631 0 -1149 -3 -1152z
m3299 2180 c36 -62 66 -116 66 -119 0 -4 6 -14 14 -22 7 -9 24 -36 37 -61 13
-25 28 -48 32 -51 5 -3 8 -9 7 -13 -1 -4 13 -30 31 -59 18 -29 32 -55 31 -59
-1 -3 5 -12 13 -18 8 -7 15 -16 15 -20 0 -6 175 -312 200 -350 6 -8 13 -22 17
-30 4 -8 32 -58 63 -110 31 -52 59 -102 63 -110 4 -8 15 -28 26 -45 15 -25 68
-117 191 -330 10 -16 41 -70 69 -118 28 -49 51 -93 51 -98 0 -5 5 -9 10 -9 6
0 10 -4 10 -8 0 -5 55 -105 123 -223 68 -118 132 -230 143 -249 10 -19 25 -41
32 -49 9 -9 10 -17 3 -24 -6 -6 -237 -10 -663 -10 l-653 1 -3 1152 c-1 635 0
1152 2 1149 2 -2 34 -55 70 -117z m-2979 -1786 c100 -134 242 -266 403 -376
12 -8 22 -17 22 -20 0 -4 -386 -5 -482 -1 -17 1 -18 20 -18 248 0 136 4 243 8
238 4 -6 34 -45 67 -89z m2663 -272 l-3 -127 -235 1 c-129 0 -243 1 -253 1
-11 1 12 22 57 52 93 62 105 72 214 181 101 100 120 121 176 201 l41 59 3
-121 c1 -66 1 -177 0 -247z m-1488 -1034 l0 -668 -37 -12 c-113 -34 -279 -125
-327 -179 -10 -11 -22 -18 -26 -16 -5 3 -25 7 -46 10 -22 3 -50 7 -64 10 -14
3 -41 8 -60 11 -59 10 -311 74 -380 96 -77 25 -253 90 -307 113 -64 28 -368
177 -373 184 -3 3 -21 15 -40 25 -58 32 -265 168 -268 177 -2 5 -8 9 -13 9
-13 0 -206 154 -303 243 -77 70 -202 195 -266 267 -66 74 -220 269 -220 278 0
6 -4 12 -8 14 -8 3 -72 93 -72 101 0 3 632 5 1405 5 l1405 0 0 -668z m3050
663 c0 -5 -33 -56 -40 -63 -3 -3 -23 -30 -44 -60 -165 -235 -419 -499 -671
-696 -114 -90 -232 -174 -244 -174 -5 0 -11 -4 -13 -8 -1 -4 -55 -38 -118 -75
-63 -37 -122 -72 -130 -77 -162 -96 -583 -261 -785 -307 -30 -6 -38 -9 -60
-16 -11 -3 -31 -8 -45 -11 -14 -3 -35 -7 -46 -10 -12 -2 -39 -7 -60 -10 -22
-4 -47 -9 -56 -12 -9 -3 -32 -7 -50 -9 -18 -2 -53 -7 -77 -10 -48 -7 -48 -6 1
49 38 42 34 117 -8 159 -35 35 -81 44 -231 43 l-132 -1 -1 641 c0 352 2 643 5
646 7 6 2805 8 2805 1z"/>
</g>
</svg>
